<?xml version="1.0" encoding="utf-8"?>
<!-- Generator: Adobe Illustrator 22.1.0, SVG Export Plug-In . SVG Version: 6.00 Build 0)  -->
<svg version="1.1" xmlns="http://www.w3.org/2000/svg" xmlns:xlink="http://www.w3.org/1999/xlink" x="0px" y="0px"
	 viewBox="0 0 600 600" style="enable-background:new 0 0 600 600;" xml:space="preserve">
<style type="text/css">
	.st0{fill:#311A4D;}
	.st1{fill:#64DFEB;}
	.st2{fill:#FFFFFF;}
	.st3{fill:#00B8D5;}
</style>
<g id="Icon">
</g>
<g id="Badge">
	<g>
		<rect class="st0" width="600" height="600"/>
		<path class="st2" d="M267.2,430.6v23.5c0,8.2,6.4,9.3,17.2,9.8v5.2h-43.9v-5.2c9-0.3,13.7-1.6,13.7-9.8V390
			c0-8.2-4.7-9.5-13.7-9.8v-5.2h40c25.8,0,35.1,13.5,35.1,27.5c0,15.7-10.1,28.2-32.9,28.2H267.2z M267.2,424.5h10.6
			c16.5,0,23.5-6.7,23.5-21.5c0-12.7-7-21.9-23.5-21.9h-10.6V424.5z"/>
		<path class="st2" d="M342.3,417.9c8.7-15.6,11.9-21.2,20.3-21.2c2.3,0,4,0.8,5,1.9v11.9h-2.8c-8.3,0-13.7,1.2-22.4,11.7v34.1
			c0,6.7,3.4,7.1,13,8.2v4.7h-35.7v-4.7c5.9-0.8,10.3-1.5,10.3-7.6v-45.9l-9.7-4.7v-2.8l18.5-6.7h3.5V417.9z"/>
		<path class="st1" d="M426.1,426.6v4.2h-48c0,17.6,9.4,29.5,24.6,29.5c10.1,0,16.4-5,21.3-11.5l2.3,1.2
			c-3.2,11.9-13.1,20.5-28.2,20.5c-19.6,0-31.1-15.4-31.1-34.6c0-23.5,13.7-39.2,32.2-39.2C416.9,396.7,426.1,409,426.1,426.6z
			 M378.7,424.3h35.1c0-12.9-5.6-21.1-16.6-21.1C386.6,403.3,379.7,413.2,378.7,424.3z"/>
		<path class="st2" d="M434.6,463.9l-0.8-17.8h5c2.7,11.4,9.3,18.4,20.3,18.4c8.6,0,13.7-4,13.7-11c0-8.7-6.2-11.7-18.2-15.4
			c-11.9-3.8-19.9-8.9-19.9-21.1c0-11.8,9-20.3,23.1-20.3c9,0,16.2,2.3,22.1,5.6V419h-5.1c-1.9-10.7-7.9-16.1-17.4-16.1
			c-7.2,0-11.7,4.6-11.7,10.6c0,7.4,5.5,11.3,15.8,14.5c13.4,4.2,22.4,8.2,22.4,21.7c0,11.8-9.5,20.8-25,20.8
			C450.2,470.5,441.2,468.9,434.6,463.9z"/>
		<path class="st2" d="M490.5,463.9l-0.8-17.8h5c2.7,11.4,9.3,18.4,20.3,18.4c8.6,0,13.7-4,13.7-11c0-8.7-6.2-11.7-18.2-15.4
			c-11.9-3.8-19.9-8.9-19.9-21.1c0-11.8,9-20.3,23.1-20.3c9,0,16.2,2.3,22.1,5.6V419h-5.1c-1.9-10.7-7.9-16.1-17.4-16.1
			c-7.2,0-11.7,4.6-11.7,10.6c0,7.4,5.5,11.3,15.8,14.5c13.4,4.2,22.4,8.2,22.4,21.7c0,11.8-9.5,20.8-25,20.8
			C506.1,470.5,497.1,468.9,490.5,463.9z"/>
		<g>
			<path class="st2" d="M313.4,338.4c-15.1,0-24.4-11.9-24.4-29.4h47.8v-4.1c0-17.5-9.2-29.8-26.8-29.8c-18.4,0-32.1,15.6-32.1,39
				c0,19.1,11.5,34.5,31,34.5c15,0,24.8-8.5,28.1-20.4l-2.3-1.2C329.7,333.4,323.4,338.4,313.4,338.4z M307.9,281.6
				c11,0,16.6,8.1,16.6,21h-35C290.5,291.5,297.3,281.6,307.9,281.6z"/>
			<path class="st2" d="M268.2,334.8v-89.7h-3.4l-18.8,6.7v2.8l9.8,4.7v75.5c0,7.5-7.5,7.1-9.8,7.1c-3.4,0-9.5-0.3-9.5-7.1v-89.7
				h-3.4l-18.8,6.7v2.8l9.8,4.7v75.5c0,6.2-4.4,6.8-10.5,7.6v4.7h31.5h1.6h31.5v-4.7C272.7,341.7,268.2,341,268.2,334.8z"/>
			<path class="st2" d="M461.6,326.9c-4.9,6.5-11.2,11.5-21.2,11.5c-15.1,0-24.4-11.9-24.4-29.4h47.8v-4.1
				c0-17.5-9.2-29.8-26.8-29.8c-18.4,0-32.1,15.6-32.1,39c0,19.1,11.5,34.5,31,34.5c15,0,24.8-8.5,28.1-20.4L461.6,326.9z
				 M434.9,281.6c11,0,16.6,8.1,16.6,21h-35C417.5,291.5,424.4,281.6,434.9,281.6z"/>
			<path class="st2" d="M387.6,334.1h-30.2c-3.2,0-4.9-1.2-4.9-4.3c0-3.1,1.3-5.5,5.6-9.9c3.7,1.3,7.9,2,12.2,2
				c16.2,0,26.8-9.2,26.8-23.4c0-7.1-4-12.8-9.2-16.2v-0.7l13.8,3.1h4.9v-9.1l-24.2,1.7c-3.2-1.3-7.2-2.4-11.9-2.4
				c-15.5,0-27,9.2-27,24.2c0,9.2,4.7,15.8,11.8,19.4c-6.9,4.3-12.3,9.5-12.3,16c0,4.8,2.4,7.9,7.6,9.8c-6.3,2.9-12.4,6.3-12.4,13.9
				c0,11.1,11,16.6,29.7,16.6c22.7,0,39-10.2,39-25.1C406.9,338.2,399.6,334.1,387.6,334.1z M369.3,280.7c10,0,15.9,8.5,15.9,19
				c0,10-4.5,17.1-13.6,17.1c-10.2,0-15.8-8.7-15.8-19C355.8,287.7,360.2,280.7,369.3,280.7z M370.4,368.4c-12.3,0-21.2-4-21.2-14.3
				c0-2.9,0.9-5.9,3.5-8.5h32.6c7.1,0,11.2,1.3,11.2,7.9C396.4,363.2,385.8,368.4,370.4,368.4z"/>
			<path class="st2" d="M182.4,275c-18.2,0-33.3,15.1-33.3,38.1c0,20.6,12.7,35.4,32.5,35.4c18.2,0,33.3-15.1,33.3-38.1
				C214.9,289.9,202.2,275,182.4,275z M183.2,341.6c-13.5,0-21.2-14.2-21.2-30.9c0-17.2,6.3-28.7,18.8-28.7
				c13.5,0,21.2,14.2,21.2,30.9C202.1,330.1,195.8,341.6,183.2,341.6z"/>
			<path class="st2" d="M138.6,320.2c-5.2,14.2-12.9,21.5-25.7,21.5c-21.6,0-32.6-18.8-32.6-43.1c0-21.8,9.5-39.7,31-39.7
				c11.8,0,20.5,6,24.4,20.1c0.3,1.1,1.3,1.9,2.5,1.9h0.1c1.5,0,2.6-1.2,2.6-2.6v-16.5c0-0.9-0.4-1.7-1.1-2.2
				c-6.1-4.4-14.5-7.6-27.7-7.6c-25.8,0-46.1,19-46.1,50.2c0,26.8,17.5,46.2,43.9,46.2c13.5,0,21.6-2.7,29.9-6.7
				c0.8-0.4,1.3-1.1,1.4-2l2.9-21.3H141C139.9,318.5,139,319.1,138.6,320.2z"/>
		</g>
		<g>
			<path class="st2" d="M419.9,176.2v-21.1h-3.5l-18.4,6.7v2.8l9.6,4.7v45.7c0,6.1-4.4,6.8-10.3,7.6v4.7h35.5v-4.7
				c-9.6-1.1-13-1.5-13-8.1v-33.9c8.7-10.4,14-11.6,22.3-11.6h2.8v-11.9c-0.9-1.1-2.7-1.9-4.9-1.9
				C431.8,155.1,428.6,160.7,419.9,176.2z"/>
			<path class="st2" d="M327.9,214.9V177c0-15.6-7.1-21.9-18.7-21.9c-11.1,0-19,6.7-25.5,13.1v-42.6h-3.3l-18.7,6.7v2.8l9.8,4.7
				v75.2c0,6.8-5.9,6.7-7.6,6.7c-4.2,0-7.4-1.6-7.4-6.7V177c0-15.2-6.1-21.9-17.8-21.9c-10.7,0-19,7.1-25.5,13.5
				c-2-9.3-7.7-13.5-17-13.5c-10.7,0-18.3,6.7-24.8,13.1v-13.1H168l-18.6,6.7v2.8l9.6,4.7v45.7c0,3.5-1.8,6.7-5,6.7
				c-2.7,0-4.6-2.8-5.3-4.5L112,132.2H97.2l4.1,8.8l-31.7,76c-1.5,3.6-4.5,4.4-8.1,4.9v5.2h29.9V222c-9.2-0.3-12.6-1.7-12.6-5.9
				c0-1.5,0.7-3.3,1.5-5.3l5.9-14.6h39.4l6.3,14.7c0.8,2,1.5,3.7,1.5,5.3c0,4.1-3.2,5.5-12.4,5.7v5.2h27.8h8h24.8v-4.7
				c-6-0.8-10.3-1.5-10.3-7.6V172c5.1-4,11.9-7.1,18.8-7.1c8.3,0,11.5,3.3,11.5,13v37c0,6.1-4.4,6.8-10.4,7.6v4.7h33v-4.7
				c-5.9-0.8-10.3-1.5-10.3-7.6V172c5.1-4,11.8-7.1,18.7-7.1c8.3,0,11.5,3.3,11.5,13v37c0,6.1-4.4,6.8-10.4,7.6v4.7H261h5.7H294
				v-4.7c-5.9-0.8-10.3-1.5-10.3-7.6V172c5.2-4,12.6-7.1,19.5-7.1c8.5,0,12.4,3.3,12.4,13v37c0,6.1-4.4,6.8-10.3,7.6v4.7h33v-4.7
				C332.3,221.7,327.9,221,327.9,214.9z M88.9,189.7l16.7-41.2l17.3,41.2L88.9,189.7z"/>
			<path class="st2" d="M475.7,186.2c-10.3-3.2-15.8-7.1-15.8-14.4c0-6,4.4-10.6,11.6-10.6c9.5,0,15.5,5.3,17.4,16h5.1v-16.6
				c-5.9-3.3-13.1-5.6-22-5.6c-14,0-23,8.4-23,20.2c0,12.2,7.9,17.2,19.8,21c12,3.7,18.2,6.7,18.2,15.4c0,6.9-5.1,11-13.6,11
				c-11,0-17.5-6.9-20.2-18.3h-4.9L449,222c6.5,4.9,15.5,6.5,24.2,6.5c15.4,0,24.8-8.9,24.8-20.7C498,194.3,489.1,190.3,475.7,186.2
				z"/>
			<path class="st2" d="M372.5,218.4c-15.1,0-24.4-11.9-24.4-29.4h47.8v-4.1c0-17.5-9.2-29.8-26.8-29.8c-18.4,0-32.1,15.6-32.1,39
				c0,19.1,11.5,34.5,31,34.5c15,0,24.8-8.5,28.1-20.4l-2.3-1.2C388.8,213.4,382.5,218.4,372.5,218.4z M367,161.6
				c11,0,16.6,8.1,16.6,21h-35C349.7,171.5,356.5,161.6,367,161.6z"/>
			<path class="st2" d="M531.7,220.1c-7.3,0-10.6-2.5-10.6-9.9v-46.7h20.4v-7.1h-20.4v-15.2h-3.5c-5.9,8.5-11.8,14-18.6,18.3v4h9.9
				v49.3c0,11.4,6.7,15.8,15.9,15.8c8.8,0,15.8-3.5,20.3-8.4l-1.3-2.9C540.4,218.9,535.7,220.1,531.7,220.1z"/>
		</g>
		<g>
			<rect x="61.4" y="397.4" class="st1" width="29.2" height="29.2"/>
			<rect x="106" y="397.4" class="st1" width="29.2" height="29.2"/>
			<rect x="149.8" y="397.4" class="st1" width="29.2" height="29.2"/>
			<rect x="193.6" y="397.4" class="st1" width="29.2" height="29.2"/>
			<rect x="61.4" y="439.4" class="st1" width="29.2" height="29.2"/>
			<rect x="106" y="439.4" class="st1" width="29.2" height="29.2"/>
			<rect x="149.8" y="439.4" class="st1" width="29.2" height="29.2"/>
			<rect x="193.6" y="439.4" class="st1" width="29.2" height="29.2"/>
		</g>
	</g>
</g>
<g id="Large_reversed">
</g>
<g id="Large">
</g>
</svg>
